<mxfile host="Electron" agent="Mozilla/5.0 (Windows NT 10.0; Win64; x64) AppleWebKit/537.36 (KHTML, like Gecko) draw.io/28.1.2 Chrome/138.0.7204.243 Electron/37.4.0 Safari/537.36" version="28.1.2">
  <diagram name="Сторінка-1" id="Dp3pGadankkb1etmxbFH">
    <mxGraphModel dx="2135" dy="3438" grid="1" gridSize="10" guides="1" tooltips="1" connect="1" arrows="1" fold="1" page="1" pageScale="1" pageWidth="827" pageHeight="1169" math="0" shadow="0">
      <root>
        <mxCell id="0" />
        <mxCell id="1" parent="0" />
        <mxCell id="v64nb27iqB1xqb5BCJtJ-21" value="Ні" style="text;html=1;align=center;verticalAlign=middle;whiteSpace=wrap;rounded=0;" parent="1" vertex="1">
          <mxGeometry x="470" y="-790" width="60" height="30" as="geometry" />
        </mxCell>
        <mxCell id="v64nb27iqB1xqb5BCJtJ-2" value="" style="shape=parallelogram;perimeter=parallelogramPerimeter;whiteSpace=wrap;html=1;fixedSize=1;" parent="1" vertex="1">
          <mxGeometry x="320" y="-1160" width="120" height="80" as="geometry" />
        </mxCell>
        <mxCell id="v64nb27iqB1xqb5BCJtJ-3" value="Введення: список чисел" style="text;html=1;align=center;verticalAlign=middle;whiteSpace=wrap;rounded=0;" parent="1" vertex="1">
          <mxGeometry x="350" y="-1135" width="60" height="30" as="geometry" />
        </mxCell>
        <mxCell id="v64nb27iqB1xqb5BCJtJ-4" value="" style="rounded=0;whiteSpace=wrap;html=1;" parent="1" vertex="1">
          <mxGeometry x="320" y="-1040" width="120" height="80" as="geometry" />
        </mxCell>
        <mxCell id="v64nb27iqB1xqb5BCJtJ-7" value="" style="endArrow=classic;html=1;rounded=0;entryX=0.5;entryY=0;entryDx=0;entryDy=0;exitX=0.5;exitY=1;exitDx=0;exitDy=0;" parent="1" source="v64nb27iqB1xqb5BCJtJ-2" target="v64nb27iqB1xqb5BCJtJ-4" edge="1">
          <mxGeometry width="50" height="50" relative="1" as="geometry">
            <mxPoint x="520" y="-1040" as="sourcePoint" />
            <mxPoint x="560" y="-930" as="targetPoint" />
          </mxGeometry>
        </mxCell>
        <mxCell id="v64nb27iqB1xqb5BCJtJ-8" value="&amp;nbsp;count_percent=0" style="text;html=1;align=center;verticalAlign=middle;whiteSpace=wrap;rounded=0;" parent="1" vertex="1">
          <mxGeometry x="354" y="-1015" width="60" height="30" as="geometry" />
        </mxCell>
        <mxCell id="v64nb27iqB1xqb5BCJtJ-9" value="" style="shape=trapezoid;perimeter=trapezoidPerimeter;whiteSpace=wrap;html=1;fixedSize=1;" parent="1" vertex="1">
          <mxGeometry x="320" y="-920" width="120" height="80" as="geometry" />
        </mxCell>
        <mxCell id="v64nb27iqB1xqb5BCJtJ-10" value="початок циклу" style="text;html=1;align=center;verticalAlign=middle;whiteSpace=wrap;rounded=0;" parent="1" vertex="1">
          <mxGeometry x="350" y="-890" width="60" height="30" as="geometry" />
        </mxCell>
        <mxCell id="v64nb27iqB1xqb5BCJtJ-11" value="" style="rhombus;whiteSpace=wrap;html=1;rotation=90;" parent="1" vertex="1">
          <mxGeometry x="340" y="-820" width="80" height="120" as="geometry" />
        </mxCell>
        <mxCell id="v64nb27iqB1xqb5BCJtJ-18" value="Є ще число в списку?" style="text;html=1;align=center;verticalAlign=middle;whiteSpace=wrap;rounded=0;" parent="1" vertex="1">
          <mxGeometry x="350" y="-775" width="60" height="30" as="geometry" />
        </mxCell>
        <mxCell id="v64nb27iqB1xqb5BCJtJ-20" value="Так" style="text;html=1;align=center;verticalAlign=middle;whiteSpace=wrap;rounded=0;" parent="1" vertex="1">
          <mxGeometry x="370" y="-720" width="60" height="30" as="geometry" />
        </mxCell>
        <mxCell id="v64nb27iqB1xqb5BCJtJ-25" value="" style="rounded=0;whiteSpace=wrap;html=1;" parent="1" vertex="1">
          <mxGeometry x="320" y="-664" width="120" height="80" as="geometry" />
        </mxCell>
        <mxCell id="v64nb27iqB1xqb5BCJtJ-27" value="Перевести число у рядок" style="text;html=1;align=center;verticalAlign=middle;whiteSpace=wrap;rounded=0;" parent="1" vertex="1">
          <mxGeometry x="350" y="-639" width="60" height="30" as="geometry" />
        </mxCell>
        <mxCell id="v64nb27iqB1xqb5BCJtJ-28" value="" style="endArrow=classic;html=1;rounded=0;exitX=0.5;exitY=1;exitDx=0;exitDy=0;entryX=0.5;entryY=0;entryDx=0;entryDy=0;" parent="1" source="v64nb27iqB1xqb5BCJtJ-4" target="v64nb27iqB1xqb5BCJtJ-9" edge="1">
          <mxGeometry width="50" height="50" relative="1" as="geometry">
            <mxPoint x="510" y="-980" as="sourcePoint" />
            <mxPoint x="560" y="-1030" as="targetPoint" />
          </mxGeometry>
        </mxCell>
        <mxCell id="v64nb27iqB1xqb5BCJtJ-29" value="" style="endArrow=classic;html=1;rounded=0;exitX=0.5;exitY=1;exitDx=0;exitDy=0;entryX=0;entryY=0.5;entryDx=0;entryDy=0;" parent="1" source="v64nb27iqB1xqb5BCJtJ-9" target="v64nb27iqB1xqb5BCJtJ-11" edge="1">
          <mxGeometry width="50" height="50" relative="1" as="geometry">
            <mxPoint x="510" y="-680" as="sourcePoint" />
            <mxPoint x="560" y="-730" as="targetPoint" />
          </mxGeometry>
        </mxCell>
        <mxCell id="v64nb27iqB1xqb5BCJtJ-32" value="" style="rounded=0;whiteSpace=wrap;html=1;" parent="1" vertex="1">
          <mxGeometry x="320" y="-530" width="120" height="80" as="geometry" />
        </mxCell>
        <mxCell id="v64nb27iqB1xqb5BCJtJ-33" value="Знайти суму цифр" style="text;html=1;align=center;verticalAlign=middle;whiteSpace=wrap;rounded=0;" parent="1" vertex="1">
          <mxGeometry x="340" y="-500" width="80" height="35" as="geometry" />
        </mxCell>
        <mxCell id="v64nb27iqB1xqb5BCJtJ-34" value="" style="rhombus;whiteSpace=wrap;html=1;" parent="1" vertex="1">
          <mxGeometry x="320" y="-400" width="120" height="80" as="geometry" />
        </mxCell>
        <mxCell id="v64nb27iqB1xqb5BCJtJ-35" value="сума &amp;gt; 10?" style="text;html=1;align=center;verticalAlign=middle;whiteSpace=wrap;rounded=0;" parent="1" vertex="1">
          <mxGeometry x="345" y="-372.5" width="70" height="25" as="geometry" />
        </mxCell>
        <mxCell id="v64nb27iqB1xqb5BCJtJ-37" value="" style="rounded=0;whiteSpace=wrap;html=1;" parent="1" vertex="1">
          <mxGeometry x="324" y="-240" width="120" height="80" as="geometry" />
        </mxCell>
        <mxCell id="v64nb27iqB1xqb5BCJtJ-38" value="count_percent +=1" style="text;html=1;align=center;verticalAlign=middle;whiteSpace=wrap;rounded=0;" parent="1" vertex="1">
          <mxGeometry x="324" y="-217.5" width="120" height="35" as="geometry" />
        </mxCell>
        <mxCell id="v64nb27iqB1xqb5BCJtJ-45" value="Так" style="text;html=1;align=center;verticalAlign=middle;whiteSpace=wrap;rounded=0;" parent="1" vertex="1">
          <mxGeometry x="330" y="-310" width="60" height="30" as="geometry" />
        </mxCell>
        <mxCell id="v64nb27iqB1xqb5BCJtJ-46" value="Ні" style="text;html=1;align=center;verticalAlign=middle;whiteSpace=wrap;rounded=0;" parent="1" vertex="1">
          <mxGeometry x="444" y="-390" width="60" height="30" as="geometry" />
        </mxCell>
        <mxCell id="v64nb27iqB1xqb5BCJtJ-49" value="" style="rounded=0;whiteSpace=wrap;html=1;" parent="1" vertex="1">
          <mxGeometry x="324" y="-120" width="120" height="80" as="geometry" />
        </mxCell>
        <mxCell id="v64nb27iqB1xqb5BCJtJ-50" value="Перейти далі" style="text;html=1;align=center;verticalAlign=middle;whiteSpace=wrap;rounded=0;" parent="1" vertex="1">
          <mxGeometry x="340" y="-103.75" width="80" height="47.5" as="geometry" />
        </mxCell>
        <mxCell id="v64nb27iqB1xqb5BCJtJ-54" value="" style="endArrow=classic;html=1;rounded=0;exitX=0.5;exitY=1;exitDx=0;exitDy=0;entryX=0.5;entryY=0;entryDx=0;entryDy=0;" parent="1" source="v64nb27iqB1xqb5BCJtJ-25" target="v64nb27iqB1xqb5BCJtJ-32" edge="1">
          <mxGeometry width="50" height="50" relative="1" as="geometry">
            <mxPoint x="280" y="-590" as="sourcePoint" />
            <mxPoint x="280" y="-545" as="targetPoint" />
          </mxGeometry>
        </mxCell>
        <mxCell id="v64nb27iqB1xqb5BCJtJ-55" value="" style="endArrow=classic;html=1;rounded=0;exitX=0.5;exitY=1;exitDx=0;exitDy=0;entryX=0.5;entryY=0;entryDx=0;entryDy=0;" parent="1" source="v64nb27iqB1xqb5BCJtJ-32" target="v64nb27iqB1xqb5BCJtJ-34" edge="1">
          <mxGeometry width="50" height="50" relative="1" as="geometry">
            <mxPoint x="170" y="-420" as="sourcePoint" />
            <mxPoint x="170" y="-375" as="targetPoint" />
          </mxGeometry>
        </mxCell>
        <mxCell id="v64nb27iqB1xqb5BCJtJ-57" value="" style="rounded=0;whiteSpace=wrap;html=1;" parent="1" vertex="1">
          <mxGeometry x="320" y="40" width="120" height="80" as="geometry" />
        </mxCell>
        <mxCell id="v64nb27iqB1xqb5BCJtJ-58" value="Вийти з циклу" style="text;html=1;align=center;verticalAlign=middle;whiteSpace=wrap;rounded=0;" parent="1" vertex="1">
          <mxGeometry x="340" y="58" width="80" height="44" as="geometry" />
        </mxCell>
        <mxCell id="v64nb27iqB1xqb5BCJtJ-61" value="" style="rounded=0;whiteSpace=wrap;html=1;" parent="1" vertex="1">
          <mxGeometry x="320" y="170" width="120" height="80" as="geometry" />
        </mxCell>
        <mxCell id="v64nb27iqB1xqb5BCJtJ-62" value="&lt;font style=&quot;font-size: 9px;&quot;&gt;Порахувати відсоток:&lt;br&gt;(count_percent /&amp;nbsp; довжина списку) * 100&lt;/font&gt;" style="text;html=1;align=center;verticalAlign=middle;whiteSpace=wrap;rounded=0;" parent="1" vertex="1">
          <mxGeometry x="324" y="183.13" width="113" height="53.75" as="geometry" />
        </mxCell>
        <mxCell id="v64nb27iqB1xqb5BCJtJ-63" style="edgeStyle=orthogonalEdgeStyle;rounded=0;orthogonalLoop=1;jettySize=auto;html=1;exitX=0.5;exitY=1;exitDx=0;exitDy=0;" parent="1" source="v64nb27iqB1xqb5BCJtJ-62" target="v64nb27iqB1xqb5BCJtJ-62" edge="1">
          <mxGeometry relative="1" as="geometry" />
        </mxCell>
        <mxCell id="v64nb27iqB1xqb5BCJtJ-67" value="" style="shape=parallelogram;perimeter=parallelogramPerimeter;whiteSpace=wrap;html=1;fixedSize=1;" parent="1" vertex="1">
          <mxGeometry x="320" y="310" width="120" height="80" as="geometry" />
        </mxCell>
        <mxCell id="v64nb27iqB1xqb5BCJtJ-68" value="Вивести результат" style="text;html=1;align=center;verticalAlign=middle;whiteSpace=wrap;rounded=0;" parent="1" vertex="1">
          <mxGeometry x="354" y="335" width="60" height="30" as="geometry" />
        </mxCell>
        <mxCell id="CdX3wt2-4VGhRPujpCDp-3" value="" style="endArrow=none;html=1;rounded=0;" edge="1" parent="1">
          <mxGeometry width="50" height="50" relative="1" as="geometry">
            <mxPoint x="500" y="-360" as="sourcePoint" />
            <mxPoint x="440" y="-360" as="targetPoint" />
          </mxGeometry>
        </mxCell>
        <mxCell id="CdX3wt2-4VGhRPujpCDp-5" value="" style="endArrow=none;html=1;rounded=0;" edge="1" parent="1">
          <mxGeometry width="50" height="50" relative="1" as="geometry">
            <mxPoint x="500" y="-80" as="sourcePoint" />
            <mxPoint x="500" y="-360" as="targetPoint" />
          </mxGeometry>
        </mxCell>
        <mxCell id="CdX3wt2-4VGhRPujpCDp-6" value="" style="endArrow=none;html=1;rounded=0;exitX=1;exitY=0.5;exitDx=0;exitDy=0;" edge="1" parent="1" source="v64nb27iqB1xqb5BCJtJ-49">
          <mxGeometry width="50" height="50" relative="1" as="geometry">
            <mxPoint x="460" y="-200" as="sourcePoint" />
            <mxPoint x="500" y="-80" as="targetPoint" />
          </mxGeometry>
        </mxCell>
        <mxCell id="CdX3wt2-4VGhRPujpCDp-10" value="" style="endArrow=none;html=1;rounded=0;exitX=0.5;exitY=1;exitDx=0;exitDy=0;" edge="1" parent="1" source="v64nb27iqB1xqb5BCJtJ-34">
          <mxGeometry width="50" height="50" relative="1" as="geometry">
            <mxPoint x="480" y="-250" as="sourcePoint" />
            <mxPoint x="380" y="-240" as="targetPoint" />
          </mxGeometry>
        </mxCell>
        <mxCell id="CdX3wt2-4VGhRPujpCDp-11" value="" style="endArrow=none;html=1;rounded=0;exitX=0.5;exitY=1;exitDx=0;exitDy=0;entryX=0.5;entryY=0;entryDx=0;entryDy=0;" edge="1" parent="1" source="v64nb27iqB1xqb5BCJtJ-37" target="v64nb27iqB1xqb5BCJtJ-49">
          <mxGeometry width="50" height="50" relative="1" as="geometry">
            <mxPoint x="480" y="-250" as="sourcePoint" />
            <mxPoint x="380" y="-150" as="targetPoint" />
          </mxGeometry>
        </mxCell>
        <mxCell id="CdX3wt2-4VGhRPujpCDp-13" value="" style="endArrow=none;html=1;rounded=0;entryX=1;entryY=0.5;entryDx=0;entryDy=0;exitX=0.5;exitY=0;exitDx=0;exitDy=0;" edge="1" parent="1" source="v64nb27iqB1xqb5BCJtJ-25" target="v64nb27iqB1xqb5BCJtJ-11">
          <mxGeometry width="50" height="50" relative="1" as="geometry">
            <mxPoint x="480" y="-550" as="sourcePoint" />
            <mxPoint x="530" y="-600" as="targetPoint" />
          </mxGeometry>
        </mxCell>
        <mxCell id="CdX3wt2-4VGhRPujpCDp-15" value="" style="endArrow=none;html=1;rounded=0;entryX=0.5;entryY=1;entryDx=0;entryDy=0;" edge="1" parent="1" target="v64nb27iqB1xqb5BCJtJ-11">
          <mxGeometry width="50" height="50" relative="1" as="geometry">
            <mxPoint x="240" y="-760" as="sourcePoint" />
            <mxPoint x="530" y="-600" as="targetPoint" />
          </mxGeometry>
        </mxCell>
        <mxCell id="CdX3wt2-4VGhRPujpCDp-16" value="" style="endArrow=none;html=1;rounded=0;" edge="1" parent="1">
          <mxGeometry width="50" height="50" relative="1" as="geometry">
            <mxPoint x="240" y="-760" as="sourcePoint" />
            <mxPoint x="240" y="-80" as="targetPoint" />
          </mxGeometry>
        </mxCell>
        <mxCell id="CdX3wt2-4VGhRPujpCDp-17" value="" style="endArrow=none;html=1;rounded=0;entryX=0;entryY=0.5;entryDx=0;entryDy=0;" edge="1" parent="1" target="v64nb27iqB1xqb5BCJtJ-49">
          <mxGeometry width="50" height="50" relative="1" as="geometry">
            <mxPoint x="240" y="-80" as="sourcePoint" />
            <mxPoint x="530" y="-300" as="targetPoint" />
          </mxGeometry>
        </mxCell>
        <mxCell id="CdX3wt2-4VGhRPujpCDp-19" value="" style="endArrow=none;html=1;rounded=0;exitX=0.5;exitY=1;exitDx=0;exitDy=0;entryX=0.5;entryY=0;entryDx=0;entryDy=0;" edge="1" parent="1" source="v64nb27iqB1xqb5BCJtJ-57" target="v64nb27iqB1xqb5BCJtJ-61">
          <mxGeometry width="50" height="50" relative="1" as="geometry">
            <mxPoint x="460" y="-20" as="sourcePoint" />
            <mxPoint x="510" y="-70" as="targetPoint" />
          </mxGeometry>
        </mxCell>
        <mxCell id="CdX3wt2-4VGhRPujpCDp-20" value="" style="endArrow=none;html=1;rounded=0;exitX=0.5;exitY=1;exitDx=0;exitDy=0;entryX=0.5;entryY=0;entryDx=0;entryDy=0;" edge="1" parent="1" source="v64nb27iqB1xqb5BCJtJ-61" target="v64nb27iqB1xqb5BCJtJ-67">
          <mxGeometry width="50" height="50" relative="1" as="geometry">
            <mxPoint x="460" y="180" as="sourcePoint" />
            <mxPoint x="510" y="130" as="targetPoint" />
          </mxGeometry>
        </mxCell>
        <mxCell id="CdX3wt2-4VGhRPujpCDp-21" value="" style="endArrow=none;html=1;rounded=0;entryX=0.5;entryY=0;entryDx=0;entryDy=0;" edge="1" parent="1" target="v64nb27iqB1xqb5BCJtJ-11">
          <mxGeometry width="50" height="50" relative="1" as="geometry">
            <mxPoint x="580" y="-760" as="sourcePoint" />
            <mxPoint x="510" y="-570" as="targetPoint" />
          </mxGeometry>
        </mxCell>
        <mxCell id="CdX3wt2-4VGhRPujpCDp-22" value="" style="endArrow=none;html=1;rounded=0;" edge="1" parent="1">
          <mxGeometry width="50" height="50" relative="1" as="geometry">
            <mxPoint x="580" y="80" as="sourcePoint" />
            <mxPoint x="580" y="-760" as="targetPoint" />
          </mxGeometry>
        </mxCell>
        <mxCell id="CdX3wt2-4VGhRPujpCDp-23" value="" style="endArrow=none;html=1;rounded=0;exitX=1;exitY=0.5;exitDx=0;exitDy=0;" edge="1" parent="1" source="v64nb27iqB1xqb5BCJtJ-57">
          <mxGeometry width="50" height="50" relative="1" as="geometry">
            <mxPoint x="460" y="180" as="sourcePoint" />
            <mxPoint x="580" y="80" as="targetPoint" />
          </mxGeometry>
        </mxCell>
        <mxCell id="CdX3wt2-4VGhRPujpCDp-24" value="" style="rounded=1;whiteSpace=wrap;html=1;" vertex="1" parent="1">
          <mxGeometry x="324" y="-1240" width="120" height="40" as="geometry" />
        </mxCell>
        <mxCell id="CdX3wt2-4VGhRPujpCDp-25" value="" style="rounded=1;whiteSpace=wrap;html=1;" vertex="1" parent="1">
          <mxGeometry x="320" y="440" width="120" height="40" as="geometry" />
        </mxCell>
        <mxCell id="CdX3wt2-4VGhRPujpCDp-26" value="Початок" style="text;html=1;align=center;verticalAlign=middle;whiteSpace=wrap;rounded=0;" vertex="1" parent="1">
          <mxGeometry x="354" y="-1235" width="60" height="30" as="geometry" />
        </mxCell>
        <mxCell id="CdX3wt2-4VGhRPujpCDp-27" value="Кінець" style="text;html=1;align=center;verticalAlign=middle;whiteSpace=wrap;rounded=0;" vertex="1" parent="1">
          <mxGeometry x="345" y="445" width="60" height="30" as="geometry" />
        </mxCell>
        <mxCell id="CdX3wt2-4VGhRPujpCDp-28" value="" style="endArrow=none;html=1;rounded=0;entryX=0.5;entryY=1;entryDx=0;entryDy=0;exitX=0.5;exitY=0;exitDx=0;exitDy=0;" edge="1" parent="1" source="CdX3wt2-4VGhRPujpCDp-25" target="v64nb27iqB1xqb5BCJtJ-67">
          <mxGeometry width="50" height="50" relative="1" as="geometry">
            <mxPoint x="460" y="480" as="sourcePoint" />
            <mxPoint x="510" y="430" as="targetPoint" />
          </mxGeometry>
        </mxCell>
        <mxCell id="CdX3wt2-4VGhRPujpCDp-29" value="" style="endArrow=none;html=1;rounded=0;exitX=0.5;exitY=1;exitDx=0;exitDy=0;" edge="1" parent="1" source="CdX3wt2-4VGhRPujpCDp-24">
          <mxGeometry width="50" height="50" relative="1" as="geometry">
            <mxPoint x="460" y="-1220" as="sourcePoint" />
            <mxPoint x="384" y="-1160" as="targetPoint" />
          </mxGeometry>
        </mxCell>
      </root>
    </mxGraphModel>
  </diagram>
</mxfile>
